<svg viewBox="0 0 311.81 172.92" xmlns="http://www.w3.org/2000/svg" xmlns:xlink="http://www.w3.org/1999/xlink" id="Layer_2" overflow="hidden"><defs></defs><g id="Artwork"><g id="Red_Outline"><rect x="0" y="0" width="311.81" height="172.92" fill="none"/><path d="M80.54 72.77C63.74 84.34 51.96 99.97 51.96 99.97L73.99 114.86C73.99 114.86 75.91 110.1 75.96 109.97 81.2 120.76 92.44 123.66 98.72 123.51L98.62 123.51 213.03 123.51 212.91 123.51C219.26 123.68 230.61 120.82 235.9 110.05 236.08 110.5 237.8 114.69 237.8 114.69L259.83 99.95C259.83 99.95 247.87 84.31 230.95 72.75 215.36 62.1 189.64 49.41 155.62 49.41 121.6 49.41 96.01 62.11 80.53 72.77Z" fill="#FFFFFF"/><path d="M122.27 84.59 124.18 80.51 99.75 80.51 97.84 84.59 107.3 84.59 97.5 104.52 103.83 104.52 113.63 84.59 122.27 84.59Z" fill="#E1242A"/><path d="M210.51 97.91C208.69 100.46 206.12 101.76 204.76 100.8 203.4 99.83 203.77 96.98 205.59 94.42 207.41 91.86 209.98 90.57 211.34 91.53 212.7 92.5 212.32 95.35 210.51 97.91ZM189.12 97.81C187.3 100.37 184.73 101.66 183.37 100.7 182.01 99.73 182.38 96.88 184.2 94.31 186.02 91.76 188.59 90.46 189.95 91.43 191.31 92.39 190.93 95.25 189.12 97.81M162.55 95.96C162.55 95.96 163.73 91.99 167.57 90.4 167.57 90.4 168.65 90.03 169.24 90.5 169.24 90.5 170.06 91.3 169.08 92.76 168.21 94.06 166.11 96.42 163.83 97.21 163.83 97.21 161.77 98.1 162.55 95.97M125.24 97.81C123.42 100.37 120.85 101.66 119.49 100.7 118.13 99.73 118.51 96.88 120.32 94.31 122.14 91.76 124.71 90.46 126.07 91.43 127.43 92.39 127.06 95.25 125.24 97.81M216.6 100.93C216.6 100.93 215.37 101.5 214.83 100.95 214.3 100.4 214.77 99.38 214.77 99.38L219.94 88.52 214.67 88.52 213.87 89.97C210.79 87.27 205.01 88.66 201.43 92.41 199.36 94.57 198.19 97.13 198.03 99.35 197.44 99.74 196.47 100.33 195.2 100.83 195.2 100.83 193.97 101.39 193.44 100.84 192.91 100.29 193.38 99.27 193.38 99.27L202.55 80.41 197.29 80.41 192.48 89.87C189.41 87.17 183.63 88.57 180.04 92.31 179.31 93.07 178.7 93.88 178.2 94.71L178.2 94.69C178.17 94.75 178.13 94.82 178.09 94.89 177.98 95.08 177.87 95.28 177.77 95.47 174.91 100.42 171.35 101.25 171.35 101.25 163.83 103.5 162.97 99.82 162.97 99.82 171.4 96.7 174.56 93.02 174.27 90.2 173.98 87.37 170.1 87.23 170.1 87.23 163.73 86.85 158.23 91.3 156.88 95.66 156.47 96.99 156.35 98.35 156.6 99.6 154.05 100.96 152.59 101.17 152.59 101.17 150.47 101.84 150.21 100.84 149.95 100.22 149.69 99.6 148.74 94.18 148.74 94.18L157.68 88.33 152.21 88.33 145.49 92.49C143.98 93.11 144.57 91.53 144.57 91.53L150.05 80.42 144.79 80.42 135.89 98.45C134.87 99.06 132.81 100.26 131.32 100.85 131.32 100.85 130.09 101.41 129.55 100.86 129.02 100.31 129.49 99.29 129.49 99.29L134.66 88.44 129.4 88.44 128.59 89.89C125.52 87.19 119.74 88.59 116.15 92.33 112.57 96.07 111.65 101.02 114.1 103.36 116.06 105.24 119.59 104.9 122.75 102.76 122.75 102.76 123.55 102.07 123.99 102.88 124.44 103.71 126.25 105.6 130.43 103.96 131.77 103.43 132.97 102.83 134 102.25L132.91 104.47 138.18 104.47 140.81 99.13 143.1 97.67C143.1 97.67 143.8 97.12 144.08 98.3 144.08 98.3 145.21 102.78 145.66 103.37 146.1 103.96 146.98 105.27 150.68 104.21 153.52 103.4 156.16 102.39 157.55 101.8 158.79 103.5 161.17 104.67 165.07 104.67 170.85 104.67 174.92 101.91 176.65 100.48 176.77 101.62 177.21 102.63 177.99 103.36 179.95 105.24 183.48 104.9 186.64 102.76 186.64 102.76 187.44 102.07 187.88 102.88 188.33 103.71 190.14 105.6 194.32 103.96 196.24 103.2 197.52 102.48 198.36 101.92 198.59 102.51 198.93 103.03 199.38 103.47 201.34 105.35 204.87 105 208.03 102.86 208.03 102.86 208.83 102.17 209.27 102.98 209.72 103.82 211.53 105.7 215.71 104.06 219.89 102.41 221.09 100.92 221.09 100.92L220.03 99.06C219.88 99.14 218.6 100.16 216.59 100.96" fill="#E1242A"/><path d="M231.35 100.43C231.35 100.43 228.86 114.96 212.8 114.96L98.58 114.96C82.52 114.96 80.26 100.3 80.26 100.3 79.65 96.41 80.4 93.75 81.6 91.9 93.16 76.67 116.04 56.25 155.59 56.25 195.14 56.25 218.55 76.97 230.11 92.2 231.44 93.89 231.94 96.66 231.35 100.43ZM155.64 53.73C91.93 53.73 58.14 98.93 58.14 98.93L71.99 108.29C71.99 108.29 73.66 104.1 77.5 98.1 77.52 99.6 77.72 100.66 77.72 100.66 80.17 119.65 98.62 119.2 98.62 119.2L213.03 119.2C213.03 119.2 231.73 119.71 234.17 100.73 234.17 100.73 234.36 99.75 234.38 98.26 238.14 104.11 239.8 108.18 239.8 108.18L253.63 98.92C253.63 98.92 219.35 53.75 155.64 53.75" fill="#E1242A"/></g></g></svg>